<svg xmlns="http://www.w3.org/2000/svg" width="63.344" height="70" viewBox="0 0 63.344 70">
  <defs>
    <style>
      .cls-1 {
        fill: #494450;
        fill-rule: evenodd;
      }
    </style>
  </defs>
  <path id="props_icon_rubber_band" class="cls-1" d="M341.1,1312.03a8.577,8.577,0,0,0-2.581-6.39l-0.413-.35h0l-7.85-6.62a8.441,8.441,0,0,0-6.7-1.45c-3.015.45-8.9,2.48-14.447,11.03a37.968,37.968,0,0,0-4.779,11.14,14.954,14.954,0,0,1-8.217,9.86,37.544,37.544,0,0,0-10.077,6.66c-7.409,6.98-8.375,13.17-8.293,16.23a8.577,8.577,0,0,0,2.581,6.39l7.849,6.63h0l0.413,0.35a7.656,7.656,0,0,0,4.968,1.57,11.545,11.545,0,0,0,1.735-.13c3.015-.45,8.9-2.48,14.447-11.03a37.968,37.968,0,0,0,4.779-11.14,14.915,14.915,0,0,1,8.217-9.85,37.616,37.616,0,0,0,10.077-6.67C340.212,1321.28,341.178,1315.1,341.1,1312.03Zm-59.057,44.44a6.055,6.055,0,0,1-1.623-4.4c-0.072-2.61.8-7.93,7.445-14.19a34.94,34.94,0,0,1,9.363-6.19,17.588,17.588,0,0,0,9.692-11.62,35.2,35.2,0,0,1,4.432-10.34c4.972-7.67,10.026-9.46,12.595-9.84a9.035,9.035,0,0,1,1.344-.11,5.057,5.057,0,0,1,3.244.95l3.588,3.03q-0.356.03-.717,0.09c-3.016.45-8.9,2.48-14.449,11.03a37.943,37.943,0,0,0-4.78,11.14,14.915,14.915,0,0,1-8.217,9.85,37.537,37.537,0,0,0-10.077,6.67c-7.407,6.98-8.374,13.16-8.291,16.23,0.006,0.24.019,0.49,0.04,0.73Zm48.477-49.69c-0.266,2.74-1.672,7.5-7.393,12.88a33.671,33.671,0,0,1-7.924,5.49,34.369,34.369,0,0,1,4-8.8C323.444,1309.8,327.749,1307.54,330.516,1306.78Zm-26.882,32.24a34.369,34.369,0,0,1-4,8.8c-4.281,6.6-8.689,8.82-11.326,9.56,0.263-2.87,1.727-7.53,7.4-12.87A33.969,33.969,0,0,1,303.634,1339.02Zm27.338-12.73a34.988,34.988,0,0,1-9.363,6.19,17.61,17.61,0,0,0-9.692,11.62,35.262,35.262,0,0,1-4.432,10.35c-4.972,7.67-10.026,9.45-12.6,9.84a5.95,5.95,0,0,1-4.588-.85l-0.414-.35h0a5.064,5.064,0,0,1-1.473-2.95c3.3-.75,8.506-3.2,13.464-10.85a37.969,37.969,0,0,0,4.779-11.13c0.071-.28.15-0.55,0.235-0.81a17.611,17.611,0,0,0,7.235-8.68c0.245-.13.494-0.25,0.748-0.37a37.537,37.537,0,0,0,10.077-6.67c6.625-6.24,8.118-11.83,8.279-15.22a4.963,4.963,0,0,1,3.135.94l0.426,0.36a6.012,6.012,0,0,1,1.624,4.39C338.489,1314.72,337.615,1320.03,330.972,1326.29Zm-20.817-5.36a31.915,31.915,0,0,1,4-9.36l-1.122-.74a33.143,33.143,0,0,0-4.17,9.76,19.96,19.96,0,0,1-3.955,7.69l1.025,0.86A21.268,21.268,0,0,0,310.155,1320.93Zm-20,19.41-0.916-.98a30.984,30.984,0,0,0-2.538,2.68c-3.4,4.08-4.2,7.4-4.276,9.47l1.339,0.05c0.052-1.52.637-4.67,3.962-8.65A29.14,29.14,0,0,1,290.15,1340.34Z" transform="translate(-277.75 -1297.09)"/>
</svg>
