<svg xmlns="http://www.w3.org/2000/svg" width="46.719" height="83" viewBox="0 0 46.719 83">
  <defs>
    <style>
      .cls-1 {
        fill: #494450;
        fill-rule: evenodd;
      }
    </style>
  </defs>
  <path id="props_icon_bottle" class="cls-1" d="M157.624,1339.03a4.917,4.917,0,0,0-4.544,2.55l0.48-9.47h9v-3.08H150.5l-0.83,17.14h3.19v-0.71c0.305-2.25,1.573-3.3,3.452-3.3,2.447,0,3.584,1.67,3.584,4.45v5.99c0,2.77-1.137,4.45-3.584,4.45s-3.584-1.68-3.584-4.45v-2.29h-3.188v2.07c0,4.71,2.184,7.8,6.859,7.8s6.905-3.09,6.905-7.8v-6.04C163.305,1341.94,161.557,1339.03,157.624,1339.03Zm21.043,13.06a3.788,3.788,0,0,0,1.108-2.69v-8.53q0-1.71-.013-3.3a3.8,3.8,0,0,0-1.11-2.65l-0.241-.24a0.953,0.953,0,0,1,0-1.34,3.847,3.847,0,0,0,1.1-2.98c-0.708-9.97-3.146-16.98-13.973-25.46a3.72,3.72,0,0,1-1.4-2.93V1290.5H148.708v11.47a3.72,3.72,0,0,1-1.4,2.93c-10.827,8.48-13.265,15.49-13.973,25.46a3.847,3.847,0,0,0,1.1,2.98,0.951,0.951,0,0,1,0,1.34l-0.241.24a3.778,3.778,0,0,0-1.11,2.65q-0.015,1.59-.013,3.3v8.53a3.788,3.788,0,0,0,1.108,2.69l0.256,0.26a0.951,0.951,0,0,1,0,1.34l-0.256.26a3.811,3.811,0,0,0-1.108,2.7v5.59a11.248,11.248,0,0,0,1.5,5.66c1.214,2.09,3.827,5.6,7.691,5.6h28.331c4.014,0,6.793-4.1,7.548-5.36a11.437,11.437,0,0,0,1.639-5.9v-5.59a3.811,3.811,0,0,0-1.108-2.7l-0.256-.25a0.965,0.965,0,0,1,0-1.35Zm-27.12-58.73H161.3v4.4h-9.751v-4.4Zm-2.5,13.81a6.643,6.643,0,0,0,2.5-5.2v-1.3H161.3v1.3a6.643,6.643,0,0,0,2.5,5.2,38.864,38.864,0,0,1,8.372,8.47,10.653,10.653,0,0,0-3.091,1.1,8.017,8.017,0,0,1-7.608,0,10.879,10.879,0,0,0-10.126,0,7.172,7.172,0,0,1-3.8.96,7.269,7.269,0,0,1-3.794-.95,10.312,10.312,0,0,0-3.084-1.11A38.864,38.864,0,0,1,149.045,1307.17Zm27.891,42.23a0.944,0.944,0,0,1-.277.67l-0.255.26a3.838,3.838,0,0,0,0,5.39l0.256,0.26a0.947,0.947,0,0,1,.276.67v5.59a8.571,8.571,0,0,1-1.225,4.42c-1.105,1.83-3.111,3.98-5.123,3.98H142.257c-2.54,0-4.511-2.93-5.242-4.18a8.432,8.432,0,0,1-1.106-4.22v-5.59a0.934,0.934,0,0,1,.276-0.67l0.256-.26a3.838,3.838,0,0,0,0-5.39l-0.256-.26a0.951,0.951,0,0,1-.276-0.67v-8.53q0-1.695.013-3.27a0.907,0.907,0,0,1,.278-0.65l0.241-.25a3.838,3.838,0,0,0,0-5.39,0.963,0.963,0,0,1-.28-0.74c0.332-4.66,1.038-8.53,2.9-12.22a7.225,7.225,0,0,1,3.43.96,10.786,10.786,0,0,0,10.118,0,8,8,0,0,1,7.6,0,10.812,10.812,0,0,0,10.131,0,7.265,7.265,0,0,1,3.44-.96c1.864,3.69,2.57,7.56,2.9,12.22a0.963,0.963,0,0,1-.28.74,3.838,3.838,0,0,0,0,5.39l0.241,0.25a0.912,0.912,0,0,1,.279.65q0.013,1.575.012,3.27v8.53Z" transform="translate(-133.062 -1290.5)"/>
</svg>
