<svg xmlns="http://www.w3.org/2000/svg" width="94" height="105" viewBox="0 0 94 105">
  <defs>
    <style>
      .cls-1 {
        fill: #494450;
        fill-rule: evenodd;
        opacity: 0.1;
      }
    </style>
  </defs>
  <path id="course_tab_back" class="cls-1" d="M1553.23,180.254c0.51,10.032,5.05,15.625,5.1,15.684L1555.91,198c-0.24-.283-5.96-7.073-5.96-19.472,0-13.115,7.15-31.156,13.38-45.41l2.92,1.265c-5.55,12.7-11.78,28.384-12.88,40.551,11.67-15.226,17.44-32.953,17.44-54.1,0-6.018-1.3-10.311-3.87-12.759-3.27-3.124-8.24-2.9-11.86-2.739-0.77.034-1.47,0.065-2.09,0.065-4.65,0-10.43-3.155-11.44-12.045l3.16-.36c0.78,6.806,4.78,9.229,8.28,9.229,0.57,0,1.23-.031,1.94-0.062,3.96-.177,9.95-0.444,14.21,3.617,3.22,3.071,4.86,8.136,4.86,15.054C1574,143.958,1567,163.934,1553.23,180.254Zm-14.63-53.361-3.19.04c0.01,0.54.26,13.317,8.56,19.487l1.9-2.543C1538.85,138.65,1538.6,127.011,1538.6,126.893Zm-13.19,63.638h3.18v-23.1h-3.18v23.1Zm-26.49-85.194c0.77,0.034,1.47.065,2.09,0.065,4.65,0,10.44-3.155,11.44-12.045l-3.16-.36c-0.78,6.806-4.78,9.229-8.28,9.229-0.58,0-1.23-.031-1.94-0.062-3.98-.18-9.96-0.444-14.22,3.617-3.22,3.071-4.85,8.136-4.85,15.054,0,23.118,7.01,43.093,20.76,59.415-0.5,10.035-5.04,15.629-5.09,15.688l2.42,2.063c0.24-.283,5.96-7.073,5.96-19.472,0-13.109-7.15-31.153-13.38-45.41l-2.92,1.265c5.55,12.7,11.78,28.385,12.88,40.547-11.68-15.225-17.44-32.953-17.44-54.1,0-6.018,1.3-10.311,3.87-12.759C1490.33,104.952,1495.3,105.173,1498.92,105.337Zm9.2,38.536,1.91,2.55c8.3-6.173,8.55-18.95,8.56-19.49l-3.19-.04C1515.4,127.011,1515.15,138.65,1508.12,143.873Z" transform="translate(-1480 -93)"/>
</svg>
