<svg xmlns="http://www.w3.org/2000/svg" width="94" height="105" viewBox="0 0 94 105">
  <defs>
    <style>
      .cls-1 {
        fill: #494450;
        fill-rule: evenodd;
        opacity: 0.1;
      }
    </style>
  </defs>
  <path id="course_tab_abs" class="cls-1" d="M1258.59,145.359v1.792a1.59,1.59,0,1,1-3.18,0v-1.792A1.59,1.59,0,1,1,1258.59,145.359Zm16.49-9.686a20.787,20.787,0,0,0-2.67.262c-2.06.292-4.4,0.622-6.45-.156-6.37-2.426-7.36-12.526-7.37-12.629l-1.58.142-1.59-.142c-0.01.1-1.01,10.2-7.37,12.629-2.05.778-4.39,0.451-6.45,0.156a20.956,20.956,0,0,0-2.67-.262c-2.52,0-6.85,1.213-7.54,9.347l3.17,0.268c0.55-6.429,3.42-6.429,4.37-6.429a17.092,17.092,0,0,1,2.22.23c2.33,0.329,5.22.737,8.03-.336,4.17-1.588,6.52-5.368,7.82-8.778,1.31,3.41,3.66,7.19,7.83,8.778,2.81,1.073,5.7.665,8.02,0.336a17.4,17.4,0,0,1,2.23-.23c0.94,0,3.82,0,4.37,6.429l3.17-.268C1281.93,136.886,1277.6,135.673,1275.08,135.673ZM1238.7,122.51c6.22,1.253,11.17.42,14.69-2.473a13.461,13.461,0,0,0,3.62-4.734,13.311,13.311,0,0,0,3.61,4.734c3.53,2.893,8.47,3.72,14.69,2.473a3.277,3.277,0,0,1,2.54.507c1.04,0.743,1.73,2.236,2,4.317l3.16-.41c-0.4-3.024-1.51-5.207-3.31-6.5a6.47,6.47,0,0,0-5.02-1.039c-5.24,1.045-9.28.445-12.02-1.8-3.99-3.244-4.06-9-4.06-9.052h-3.19c0,0.056-.08,5.808-4.06,9.052-2.75,2.243-6.8,2.843-12.02,1.8-2.85-.576-6.66.233-8.73,7.294l3.06,0.9C1235.34,121.838,1237.78,122.323,1238.7,122.51Zm55.61,16.958c4.54,9.136,9.69,19.491,9.69,35.024A74.248,74.248,0,0,1,1300.09,198l-3.02-1.008a71.11,71.11,0,0,0,3.74-22.5,59.643,59.643,0,0,0-2.27-16.521c-5.24,2.832-26,14.851-33.91,31.176,0.01,1.03.08,4.171,0.47,8.2l-3.17.3c-0.3-3.132-.42-5.733-0.47-7.3h-8.93c-0.04,1.564-.16,4.165-0.46,7.3l-3.18-.3c0.39-4.021.47-7.163,0.48-8.2-7.92-16.326-28.67-28.344-33.91-31.176a59.27,59.27,0,0,0-2.27,16.521,71.11,71.11,0,0,0,3.74,22.5L1213.91,198a74.248,74.248,0,0,1-3.91-23.507c0-15.533,5.15-25.888,9.69-35.024,3.79-7.627,7.37-14.834,7.37-23.96a83.752,83.752,0,0,0-2.41-21.667l3.08-.84a67.168,67.168,0,0,1,1.78,9.525,119.87,119.87,0,0,1,54.98,0A67.311,67.311,0,0,1,1286.27,93l3.07,0.84a83.858,83.858,0,0,0-2.4,21.667C1286.94,124.634,1290.52,131.841,1294.31,139.468Zm-75.9,10.207a161.425,161.425,0,0,0,77.17,0c-1.3-3.048-2.71-5.946-4.12-8.791-3.97-7.97-7.71-15.5-7.71-25.376,0-3.48.17-6.707,0.43-9.789a116.6,116.6,0,0,0-54.37,0c0.27,3.081.44,6.309,0.44,9.789,0,9.876-3.74,17.406-7.71,25.376C1221.13,143.729,1219.71,146.627,1218.41,149.675Zm79.18,5.191c-0.26-.746-0.52-1.476-0.8-2.2a163.189,163.189,0,0,1-39.79,4.925,163.331,163.331,0,0,1-39.8-4.925c-0.27.722-.54,1.452-0.79,2.2,4.33,2.255,26.53,14.522,35.51,32.3h10.16C1271.06,169.388,1293.26,157.121,1297.59,154.866Z" transform="translate(-1210 -93)"/>
</svg>
