<svg version="1.1" xmlns="http://www.w3.org/2000/svg" xmlns:xlink="http://www.w3.org/1999/xlink" viewBox="0 0 20 20">
<style type="text/css">
	.st0{fill:#FF0000;}
	.st1{fill:#FFFFFF;}
</style>
<g>
	<path class="st0" d="M22,2.5c-0.3-1-1-1.7-2-2C18.3,0,11.3,0,11.3,0s-7,0-8.8,0.5c-1,0.3-1.7,1-2,2C0,4.2,0,7.9,0,7.9
		s0,3.7,0.5,5.4c0.3,1,1,1.7,2,2c1.8,0.5,8.8,0.5,8.8,0.5s7,0,8.8-0.5c1-0.3,1.7-1,2-2c0.5-1.8,0.5-5.4,0.5-5.4S22.5,4.2,22,2.5z"/>
	<polygon class="st1" points="9,11.2 14.8,7.9 9,4.5 	"/>
</g>
</svg>
