<svg version="1.1" xmlns="http://www.w3.org/2000/svg" xmlns:xlink="http://www.w3.org/1999/xlink" viewBox="0 0 20 20">
<style type="text/css">
	.st0{fill-rule:evenodd;clip-rule:evenodd;fill:#2787F5;}
	.st1{fill-rule:evenodd;clip-rule:evenodd;fill:#FFFFFF;}
</style>
<g>
	<path class="st0" d="M6.9,0h6.1C18.7,0,20,1.3,20,6.9v6.1c0,5.6-1.3,6.9-6.9,6.9H6.9C1.3,20,0,18.7,0,13.1V6.9C0,1.3,1.3,0,6.9,0"
		/>
	<path class="st1" d="M16.4,6.9c0.1-0.3,0-0.5-0.4-0.5h-1.5c-0.4,0-0.5,0.2-0.6,0.4c0,0-0.7,1.8-1.8,3c-0.3,0.3-0.5,0.4-0.7,0.4
		c-0.1,0-0.2-0.1-0.2-0.4V6.9c0-0.4-0.1-0.5-0.4-0.5H8.4c-0.2,0-0.4,0.2-0.4,0.3c0,0.4,0.5,0.4,0.6,1.4v2.1c0,0.5-0.1,0.6-0.3,0.6
		C7.9,10.8,6.7,9,6,6.9C5.8,6.5,5.7,6.4,5.3,6.4H3.9c-0.4,0-0.5,0.2-0.5,0.4c0,0.4,0.5,2.3,2.3,4.8c1.2,1.7,2.9,2.7,4.4,2.7
		c0.9,0,1-0.2,1-0.6v-1.3c0-0.4,0.1-0.5,0.4-0.5c0.2,0,0.6,0.1,1.5,0.9c1,1,1.2,1.4,1.7,1.4h1.5c0.4,0,0.6-0.2,0.5-0.6
		c-0.1-0.4-0.6-1-1.2-1.7c-0.3-0.4-0.8-0.8-1-1.1c-0.2-0.3-0.2-0.4,0-0.6C14.4,10.2,16.2,7.7,16.4,6.9"/>
</g>
</svg>
