<svg version="1.1" xmlns="http://www.w3.org/2000/svg" xmlns:xlink="http://www.w3.org/1999/xlink" viewBox="0 0 20 20">
<style type="text/css">
	.st0{fill-rule:evenodd;clip-rule:evenodd;fill:#85818C;}
</style>
<path class="st0" d="M14,0H6C2.7,0,0,2.7,0,6v8c0,3.3,2.7,6,6,6h8c3.3,0,6-2.7,6-6V6C20,2.7,17.3,0,14,0z M18,14
	c0,2.2-1.8,3.9-3.9,3.9H6C3.8,18,2,16.2,2,14V6c0-2.2,1.8-4,4-4h8c2.2,0,4,1.8,4,4V14L18,14z M10,4.8c-2.9,0-5.2,2.3-5.2,5.2
	s2.3,5.2,5.2,5.2s5.2-2.3,5.2-5.2S12.9,4.8,10,4.8z M10,13.2c-1.7,0-3.2-1.4-3.2-3.2S8.3,6.8,10,6.8s3.2,1.4,3.2,3.2
	C13.2,11.7,11.7,13.2,10,13.2z M15.2,3.7c0.7,0,1.2,0.5,1.2,1.2s-0.5,1.2-1.2,1.2S14,5.6,14,4.9S14.5,3.7,15.2,3.7z"/>
</svg>
