<svg version="1.1" xmlns="http://www.w3.org/2000/svg" xmlns:xlink="http://www.w3.org/1999/xlink" viewBox="0 0 20 20">
<style type="text/css">
	.st0{fill:#FFFFFF;}
	.st1{fill:#1877F2;}
</style>
<g>
	<path class="st0" d="M13.9,12.9l0.4-2.9h-2.8V8.1c0-0.8,0.4-1.1,1.6-1.1l1.3-0.2V4.1c0,0-1.1-0.2-2.2-0.2c-2.3,0-3.8,1.4-3.8,3.9
		V10H5.9v2.9h2.5v7C8.9,20,9.5,20,10,20s1.1,0,1.6-0.1v-7H13.9z"/>
	<path class="st1" d="M20,10c0-5.5-4.5-10-10-10S0,4.5,0,10c0,5,3.7,9.1,8.4,9.9v-7H5.9V10h2.5V7.8c0-2.5,1.5-3.9,3.8-3.9
		c1.1,0,2.2,0.2,2.2,0.2v2.5h-1.3c-1.2,0-1.6,0.8-1.6,1.6V10h2.8l-0.4,2.9h-2.3v7C16.3,19.1,20,15,20,10z"/>
</g>
</svg>
