<svg version="1.1" xmlns="http://www.w3.org/2000/svg" xmlns:xlink="http://www.w3.org/1999/xlink" viewBox="0 0 20 20">
<style type="text/css">
	.st0{fill-rule:evenodd;clip-rule:evenodd;fill:#85818C;}
</style>
<path class="st0" d="M10,0C4.5,0,0,4.5,0,10s4.5,10,10,10s10-4.5,10-10S15.5,0,10,0z M14.7,9.1c-0.3,1.9-0.6,3.8-0.9,5.7
	c-0.1,0.6-0.9,1-1.4,0.6c-1.2-0.8-2.4-1.6-3.6-2.5c-0.4-0.4,0-1,0.3-1.3c1-1,2.1-1.8,3-2.9c0.3-0.6-0.5-0.1-0.7,0.1
	c-1.4,0.9-2.7,1.9-4.1,2.8c-0.7,0.4-1.6,0.1-2.3-0.2c-0.7-0.3-1.6-0.5-1.1-1l0,0c1.2-0.6,2.5-1.2,3.7-1.7c2.1-0.9,4.2-1.8,6.3-2.6
	c0.4-0.1,1.2-0.3,1.2,0.3C14.9,7.4,14.8,8.3,14.7,9.1z"/>
</svg>
