<svg version="1.1" xmlns="http://www.w3.org/2000/svg" xmlns:xlink="http://www.w3.org/1999/xlink" viewBox="0 0 20 20">
<style type="text/css">
	.st0{fill-rule:evenodd;clip-rule:evenodd;fill:#85818C;}
</style>
<path class="st0" d="M13.1,0H6.9C1.3,0,0,1.3,0,6.9v6.1C0,18.7,1.3,20,6.9,20h6.1c5.6,0,6.9-1.3,6.9-6.9V6.9C20,1.3,18.7,0,13.1,0z
	 M16.1,14.3h-1.5c-0.6,0-0.7-0.4-1.7-1.4c-0.9-0.8-1.2-0.9-1.5-0.9c-0.3,0-0.4,0.1-0.4,0.5v1.3c0,0.4-0.1,0.6-1,0.6
	c-1.5,0-3.2-0.9-4.4-2.7C3.9,9.1,3.4,7.2,3.4,6.8c0-0.2,0.1-0.4,0.5-0.4h1.5c0.4,0,0.5,0.2,0.7,0.6c0.7,2.1,1.9,3.9,2.4,3.9
	c0.2,0,0.3-0.1,0.3-0.6V8.1C8.6,7.1,8.1,7,8.1,6.7c0-0.2,0.1-0.3,0.4-0.3h2.3c0.3,0,0.4,0.2,0.4,0.5v2.9c0,0.3,0.1,0.4,0.2,0.4
	c0.2,0,0.3-0.1,0.7-0.4c1.1-1.2,1.8-3,1.8-3c0.1-0.2,0.3-0.4,0.6-0.4h1.5c0.4,0,0.5,0.2,0.4,0.5c-0.2,0.8-2,3.4-2,3.4
	c-0.2,0.2-0.2,0.4,0,0.6c0.2,0.2,0.7,0.6,1,1.1c0.6,0.7,1.1,1.3,1.2,1.7C16.8,14.1,16.6,14.3,16.1,14.3z"/>
</svg>
