<svg version="1.1" xmlns="http://www.w3.org/2000/svg" xmlns:xlink="http://www.w3.org/1999/xlink" viewBox="0 0 20 20">
<style type="text/css">
	.st0{fill:url(#circle11_2_);}
	.st1{fill:#FFFFFF;}
</style>
<g>
	
		<linearGradient id="circle11_2_" gradientUnits="userSpaceOnUse" x1="12.9311" y1="18.6184" x2="7.9311" y2="6.9524" gradientTransform="matrix(1 0 0 -1 0 21.7797)">
		<stop  offset="0" style="stop-color:#38AEE1"/>
		<stop  offset="1" style="stop-color:#2296C8"/>
	</linearGradient>
	<circle id="circle11_1_" class="st0" cx="10" cy="10" r="10"/>
	<path id="path13_1_" class="st1" d="M3.7,10.5c1.2-0.6,2.5-1.2,3.7-1.7c2.1-0.9,4.2-1.8,6.3-2.6c0.4-0.1,1.2-0.3,1.2,0.3
		c0,0.9-0.2,1.7-0.3,2.6c-0.3,1.9-0.6,3.8-0.9,5.7c-0.1,0.6-0.9,1-1.4,0.6c-1.2-0.8-2.4-1.6-3.6-2.5c-0.4-0.4,0-1,0.3-1.3
		c1-1,2.1-1.8,3-2.9c0.3-0.6-0.5-0.1-0.7,0.1c-1.4,0.9-2.7,1.9-4.1,2.8c-0.7,0.4-1.6,0.1-2.3-0.2C4.1,11.2,3.2,10.9,3.7,10.5
		L3.7,10.5z"/>
</g>
</svg>
