<svg version="1.1" xmlns="http://www.w3.org/2000/svg" xmlns:xlink="http://www.w3.org/1999/xlink" viewBox="0 0 20 20">
<style type="text/css">
	.st0{fill:url(#SVGID_1_);}
	.st1{fill:url(#SVGID_2_);}
	.st2{fill:url(#SVGID_3_);}
</style>
<g>
	
		<linearGradient id="SVGID_1_" gradientUnits="userSpaceOnUse" x1="10" y1="545.9418" x2="10" y2="526.1553" gradientTransform="matrix(1 0 0 1 0 -526)">
		<stop  offset="0" style="stop-color:#F7943E"/>
		<stop  offset="0.3" style="stop-color:#DC4D54"/>
		<stop  offset="0.6" style="stop-color:#C71882"/>
		<stop  offset="1" style="stop-color:#5C2D91"/>
	</linearGradient>
	<path class="st0" d="M14,0H6C2.7,0,0,2.7,0,6V14c0,3.3,2.7,6,6,6H14c3.3,0,6-2.7,6-6V6C20,2.7,17.3,0,14,0z M18,14
		c0,2.2-1.8,3.9-3.9,3.9H6C3.8,18,2,16.2,2,14V6C2,3.8,3.8,2,6,2H14C16.2,2,18,3.8,18,6V14L18,14z"/>
	
		<linearGradient id="SVGID_2_" gradientUnits="userSpaceOnUse" x1="10" y1="545.9418" x2="10" y2="526.1553" gradientTransform="matrix(1 0 0 1 0 -526)">
		<stop  offset="0" style="stop-color:#F7943E"/>
		<stop  offset="0.3" style="stop-color:#DC4D54"/>
		<stop  offset="0.6" style="stop-color:#C71882"/>
		<stop  offset="1" style="stop-color:#5C2D91"/>
	</linearGradient>
	<path class="st1" d="M10,4.8c-2.9,0-5.2,2.3-5.2,5.2c0,2.9,2.3,5.2,5.2,5.2s5.2-2.3,5.2-5.2S12.9,4.8,10,4.8z M10,13.2
		c-1.7,0-3.2-1.4-3.2-3.2S8.3,6.8,10,6.8c1.7,0,3.2,1.4,3.2,3.2C13.2,11.7,11.7,13.2,10,13.2z"/>
	
		<linearGradient id="SVGID_3_" gradientUnits="userSpaceOnUse" x1="15.1827" y1="545.9418" x2="15.1827" y2="526.1553" gradientTransform="matrix(1 0 0 1 0 -526)">
		<stop  offset="0" style="stop-color:#F7943E"/>
		<stop  offset="0.3" style="stop-color:#DC4D54"/>
		<stop  offset="0.6" style="stop-color:#C71882"/>
		<stop  offset="1" style="stop-color:#5C2D91"/>
	</linearGradient>
	<circle class="st2" cx="15.2" cy="4.9" r="1.2"/>
</g>
</svg>
