<?xml version="1.0" encoding="utf-8"?>
<svg version="1.1" xmlns="http://www.w3.org/2000/svg" xmlns:xlink="http://www.w3.org/1999/xlink"  viewBox="0 0 300 200">
<style type="text/css">
	.st0{fill:#FFFFFF;}
	.st1{fill:#FF0000;}
</style>
<rect y="0" class="st0" width="300" height="200"/>
<path class="st1" d="M130,0v80H0v40h130v80h40v-80h130V80H170V0H130z"/>
<path class="st1" d="M254.5,39.5c0-2.3,0.2-4.6,0.4-6.8c-4.7,0.9-9.4,1.5-14.3,1.7c0.2-4.9,0.8-9.6,1.7-14.3
	c-2.2,0.3-4.5,0.4-6.8,0.4s-4.6-0.2-6.8-0.4c0.9,4.7,1.5,9.4,1.7,14.3c-4.9-0.2-9.6-0.8-14.3-1.7c0.3,2.2,0.4,4.5,0.4,6.8
	s-0.2,4.6-0.4,6.8c4.7-0.9,9.4-1.5,14.3-1.7c-0.2,4.9-0.8,9.6-1.7,14.3c2.2-0.3,4.5-0.4,6.8-0.4s4.6,0.2,6.8,0.4
	c-0.9-4.7-1.5-9.4-1.7-14.3c4.9,0.2,9.6,0.8,14.3,1.7C254.7,44,254.5,41.8,254.5,39.5z"/>
<path class="st1" d="M254.5,160.6c0-2.3,0.2-4.6,0.4-6.8c-4.7,0.9-9.4,1.5-14.3,1.7c0.2-4.9,0.8-9.6,1.7-14.3
	c-2.2,0.3-4.5,0.4-6.8,0.4s-4.6-0.2-6.8-0.4c0.9,4.7,1.5,9.4,1.7,14.3c-4.9-0.2-9.6-0.8-14.3-1.7c0.3,2.2,0.4,4.5,0.4,6.8
	s-0.2,4.6-0.4,6.8c4.7-0.9,9.4-1.5,14.3-1.7c-0.2,4.9-0.8,9.6-1.7,14.3c2.2-0.3,4.5-0.4,6.8-0.4s4.6,0.2,6.8,0.4
	c-0.9-4.7-1.5-9.4-1.7-14.3c4.9,0.2,9.6,0.8,14.3,1.7C254.7,165.1,254.5,162.9,254.5,160.6z"/>
<path class="st1" d="M83.4,39.5c0-2.3,0.2-4.6,0.4-6.8c-4.7,0.9-9.4,1.5-14.3,1.7c0.2-4.9,0.8-9.6,1.7-14.3
	c-2.2,0.3-4.5,0.4-6.8,0.4s-4.6-0.2-6.8-0.4c0.9,4.7,1.5,9.4,1.7,14.3c-4.9-0.2-9.6-0.8-14.3-1.7c0.3,2.2,0.4,4.5,0.4,6.8
	S45.3,44,45,46.3c4.7-0.9,9.4-1.5,14.3-1.7c-0.2,4.9-0.8,9.6-1.7,14.3c2.2-0.3,4.5-0.4,6.8-0.4s4.6,0.2,6.8,0.4
	c-0.9-4.7-1.5-9.4-1.7-14.3c4.9,0.2,9.6,0.8,14.3,1.7C83.6,44,83.4,41.8,83.4,39.5z"/>
<path class="st1" d="M83.4,160.6c0-2.3,0.2-4.6,0.4-6.8c-4.7,0.9-9.4,1.5-14.3,1.7c0.2-4.9,0.8-9.6,1.7-14.3
	c-2.2,0.3-4.5,0.4-6.8,0.4s-4.6-0.2-6.8-0.4c0.9,4.7,1.5,9.4,1.7,14.3c-4.9-0.2-9.6-0.8-14.3-1.7c0.3,2.2,0.4,4.5,0.4,6.8
	s-0.2,4.6-0.4,6.8c4.7-0.9,9.4-1.5,14.3-1.7c-0.2,4.9-0.8,9.6-1.7,14.3c2.2-0.3,4.5-0.4,6.8-0.4s4.6,0.2,6.8,0.4
	c-0.9-4.7-1.5-9.4-1.7-14.3c4.9,0.2,9.6,0.8,14.3,1.7C83.6,165.1,83.4,162.9,83.4,160.6z"/>
</svg>