<?xml version="1.0" encoding="utf-8"?>
<svg version="1.1" xmlns="http://www.w3.org/2000/svg" viewBox="0 0 1200 600">
<style type="text/css">
	.st0{fill:#006600;}
	.st1{fill:#FFFFFF;}
	.st2{fill:#CC0000;}
	.st3{fill:#F8C300;}
</style>
<rect y="423.9" class="st0" width="1200" height="176.1"/>
<rect y="165.3" class="st1" width="1200" height="263.2"/>
<rect class="st2" width="1200" height="171.4"/>
<path class="st3" d="M658.8,343.7c-5.3,5-12.1,8-19.4,8.7c-17.9,1.6-33.7-11.6-35.4-29.5v-25.7c0.2-5.9,5.1-10.6,11-10.4
	c3.7,0.1,7.1,2.1,8.9,5.3c4.4-13.3-2.8-27.6-16-32c-13.3-4.4-27.6,2.8-32,16c-1.7,5.2-1.7,10.8,0,15.9c3-5.1,9.5-6.9,14.6-3.9
	c3.2,1.9,5.2,5.2,5.3,8.9v25.7c-1.6,17.9-17.4,31.1-35.4,29.5c-7.2-0.7-14.1-3.7-19.4-8.7c-6.9,17.4-26.6,25.8-44,18.9
	c-2.6-1-5-2.3-7.2-4c3.1,31.2,49.9,24.8,53.4-5.5c14.7,25.8,47,18.4,56.5-13.2h0.1c9.5,31.6,41.8,39,56.5,13.2
	c3.5,30.4,50.3,36.7,53.4,5.5c-2.2,1.6-4.7,2.9-7.2,4C685.4,369.5,665.7,361,658.8,343.7z M581.7,280.8c1.1-8.2,7.6-14.6,15.7-15.7
	c10.1-1.4,19.4,5.7,20.8,15.7c-7.2-1.5-14.6,1.8-18.3,8.2C596.3,282.7,589,279.4,581.7,280.8z M564.7,378.3L564.7,378.3
	C564.7,378.3,564.7,378.3,564.7,378.3L564.7,378.3z M533.7,383.4c0,0,4.6-3.2,9.5-4.1c-0.9-3.9,1-9.3,3.6-12.3
	c2.8,1.9,6.7,5.7,7.7,10.2c6.9-0.9,10.2,1.1,10.2,1.1C558.2,392.4,545.1,394.8,533.7,383.4z M615.8,376.7L615.8,376.7
	C615.8,376.7,615.8,376.7,615.8,376.7L615.8,376.7z M584.4,376.7c0,0,5.1-2.5,10-2.5c-0.3-4,2.5-9.1,5.6-11.5
	c2.4,2.3,5.7,6.7,5.9,11.3c6.9,0.2,9.9,2.7,9.9,2.7C607.1,389.5,593.8,389.8,584.4,376.7z M666.5,383.4L666.5,383.4L666.5,383.4
	L666.5,383.4z M657.2,379.1c6.8,1.4,9.3,4.3,9.3,4.3c-10.7,11.3-23.8,9.4-31-5.1c0,0,5.4-1.6,10.3-0.9c0.4-4,3.9-8.5,7.4-10.5
	C655.2,369.7,657.7,374.6,657.2,379.1z M685.1,403.1l-3.9,13.1c-53.1-15.8-109.3-15.8-162.4,0l-3.9-13.1
	C570.6,386.6,629.4,386.6,685.1,403.1z M579.6,199.1h15.6l4.8-14.8l4.8,14.8h15.6l-12.6,9.2l4.8,14.8l-12.6-9.2l-12.6,9.2l4.8-14.8
	L579.6,199.1z M519.6,215.2h15.6l4.8-14.8l4.8,14.8h15.6l-12.6,9.2l4.8,14.8L540,230l-12.6,9.2l4.8-14.8L519.6,215.2z M475.7,259.1
	h15.6l4.8-14.8l4.8,14.8h15.6l-12.6,9.2l4.8,14.8l-12.6-9.2l-12.6,9.2l4.8-14.8L475.7,259.1z M467.4,343.1l4.8-14.8l-12.6-9.2h15.6
	l4.8-14.8l4.8,14.8h15.6l-12.6,9.2l4.8,14.8l-12.6-9.2L467.4,343.1z M639.6,215.2h15.6l4.8-14.8l4.8,14.8h15.6l-12.6,9.2l4.8,14.8
	L660,230l-12.6,9.2l4.8-14.8L639.6,215.2z M683.5,259.1h15.6l4.8-14.8l4.8,14.8h15.6l-12.6,9.2l4.8,14.8l-12.6-9.2l-12.6,9.2
	l4.8-14.8L683.5,259.1z M732.6,343.1l-12.6-9.2l-12.6,9.2l4.8-14.8l-12.6-9.2h15.6l4.8-14.8l4.8,14.8h15.6l-12.6,9.2L732.6,343.1z"
	/>
</svg>