<svg xmlns="http://www.w3.org/2000/svg" width="54" height="42" viewBox="0 0 54 42">
  <defs>
    <style>
      .cls-1 {
        fill: #d2bea6;
        fill-rule: evenodd;
      }
    </style>
  </defs>
  <path id="icon_add_photo_mobile" class="cls-1" d="M193.149,273H162a2,2,0,0,1-2-2V251a2,2,0,0,1,2-2h4.858a5.983,5.983,0,0,0,4.993-2.673l1.627-2.437a1.992,1.992,0,0,1,1.663-.89h11.717a2,2,0,0,1,1.664.891l1.625,2.436A5.989,5.989,0,0,0,195.141,249H200a2,2,0,0,1,2,2v13.149a2,2,0,0,0,4,0V251a6.006,6.006,0,0,0-6-6h-4.859a2,2,0,0,1-1.665-.891l-1.625-2.438A5.986,5.986,0,0,0,186.858,239H175.141a5.986,5.986,0,0,0-4.993,2.671l-1.626,2.439a1.992,1.992,0,0,1-1.664.89H162a6.006,6.006,0,0,0-6,6v20a6.006,6.006,0,0,0,6,6h31.149A2,2,0,0,0,193.149,273ZM208,273h-2v-2a2,2,0,0,0-4,0v2h-2a2,2,0,0,0,0,4h2v2a2,2,0,0,0,4,0v-2h2A2,2,0,0,0,208,273Zm-27-3a11,11,0,1,1,11-11A11.013,11.013,0,0,1,181,270Zm0-18a7,7,0,1,0,7,7A7.008,7.008,0,0,0,181,252Z" transform="translate(-156 -239)"/>
</svg>
