<svg xmlns="http://www.w3.org/2000/svg" width="52" height="40" viewBox="0 0 52 40">
  <defs>
    <style>
      .cls-1 {
        fill: #d2bea6;
        fill-rule: evenodd;
      }
    </style>
  </defs>
  <path id="icon_add_photo" class="cls-1" d="M1343,411a1,1,0,0,1-1-1v-3h-3a1,1,0,0,1,0-2h3v-3a1,1,0,0,1,2,0v3h3a1,1,0,0,1,0,2h-3v3A1,1,0,0,1,1343,411Zm-23-10a11,11,0,1,1,11-11A11.01,11.01,0,0,1,1320,401Zm0-20a9,9,0,1,0,9,9A9.012,9.012,0,0,0,1320,381Zm13,26h-32a5,5,0,0,1-5-5V382a5,5,0,0,1,5-5h4.86a2.981,2.981,0,0,0,2.49-1.335l1.63-2.439a5,5,0,0,1,4.16-2.226h11.72a5,5,0,0,1,4.16,2.226l1.62,2.438a3.01,3.01,0,0,0,2.5,1.336H1339a5,5,0,0,1,5,5v14a1,1,0,0,1-2,0V382a3.006,3.006,0,0,0-3-3h-4.86a5,5,0,0,1-4.16-2.227l-1.62-2.437a3.01,3.01,0,0,0-2.5-1.336h-11.72a3.01,3.01,0,0,0-2.5,1.336l-1.62,2.437a4.985,4.985,0,0,1-4.16,2.227H1301a3.006,3.006,0,0,0-3,3v20a3.006,3.006,0,0,0,3,3h32A1,1,0,0,1,1333,407Z" transform="translate(-1296 -371)"/>
</svg>
