<?xml version="1.0" encoding="utf-8"?>
<!-- Generator: Adobe Illustrator 25.2.1, SVG Export Plug-In . SVG Version: 6.00 Build 0)  -->
<svg version="1.1" id="Layer_1" xmlns="http://www.w3.org/2000/svg" xmlns:xlink="http://www.w3.org/1999/xlink" x="0px" y="0px"
	 viewBox="0 0 24.1 22" style="enable-background:new 0 0 24.1 22;" xml:space="preserve">
<style type="text/css">
	.st0{fill-rule:evenodd;clip-rule:evenodd;fill:#D2BEA6;}
</style>
<path id="icon_eye_open" class="st0" d="M12.1,7C9.8,7,8,8.7,8,10.9c0,2.2,1.7,4,3.9,4.1s4-1.7,4.1-3.9c0,0,0,0,0-0.1
	C16,8.8,14.2,7,12.1,7z M12.1,13c-1.1,0-2-0.9-2-2c0-1.1,0.9-2,2-2c1.1,0,2,0.9,2,2c0,0,0,0,0,0C14,12.1,13.1,13,12.1,13z
	 M23.7,10.4c-0.7-1-1.5-1.9-2.3-2.7l2.1-2.1l-1.4-1.4l-2.2,2.2c-0.7-0.6-1.5-1.1-2.2-1.6L19,2l-1.8-0.9l-1.3,2.8
	C15,3.5,14,3.2,13,3.1V0h-2v3.1c-1,0.1-1.9,0.4-2.9,0.8L6.9,1.1L5.1,2l1.3,2.8c-0.8,0.5-1.5,1-2.2,1.6L2,4.2L0.6,5.7l2.1,2.1
	c-0.8,0.8-1.6,1.7-2.3,2.7L0,11l0.4,0.6C0.6,11.9,5.6,19,12.1,19s11.4-7.1,11.6-7.4l0.4-0.6L23.7,10.4z M12.1,17
	c-4.4,0-8.3-4.4-9.6-6c1.3-1.6,5.1-6,9.6-6c4.4,0,8.3,4.4,9.6,6C20.4,12.6,16.5,17,12.1,17z"/>
</svg>
