<?xml version="1.0" encoding="utf-8"?>
<!-- Generator: Adobe Illustrator 25.2.1, SVG Export Plug-In . SVG Version: 6.00 Build 0)  -->
<svg version="1.1" id="Layer_1" xmlns="http://www.w3.org/2000/svg" xmlns:xlink="http://www.w3.org/1999/xlink" x="0px" y="0px"
	 viewBox="0 0 24 24" style="enable-background:new 0 0 24 24;" xml:space="preserve">
<style type="text/css">
	.st0{fill:url(#circle11_1_);}
	.st1{fill:#FFFFFF;}
</style>
<linearGradient id="circle11_1_" gradientUnits="userSpaceOnUse" x1="15.5173" y1="21.9862" x2="9.5173" y2="7.987" gradientTransform="matrix(1 0 0 -1 0 25.7797)">
	<stop  offset="0" style="stop-color:#38AEE1"/>
	<stop  offset="1" style="stop-color:#2296C8"/>
</linearGradient>
<circle id="circle11" class="st0" cx="12" cy="12" r="12"/>
<path id="path13" class="st1" d="M4.5,12.6c1.4-0.8,3-1.4,4.4-2.1c2.5-1.1,5-2.1,7.6-3.1C17,7.3,17.9,7.1,18,7.9
	c0,1-0.2,2.1-0.4,3.1c-0.3,2.3-0.7,4.5-1.1,6.8c-0.1,0.8-1.1,1.1-1.7,0.7c-1.5-1-2.9-2-4.4-3c-0.5-0.5,0-1.2,0.4-1.5
	c1.2-1.2,2.5-2.2,3.6-3.4c0.3-0.7-0.6-0.1-0.9,0.1c-1.6,1.1-3.2,2.3-5,3.3c-0.9,0.5-1.9,0.1-2.8-0.2C4.9,13.4,3.8,13.1,4.5,12.6
	L4.5,12.6z"/>
</svg>
