<?xml version="1.0" encoding="utf-8"?>
<!-- Generator: Adobe Illustrator 25.2.1, SVG Export Plug-In . SVG Version: 6.00 Build 0)  -->
<svg version="1.1" id="Layer_1" xmlns="http://www.w3.org/2000/svg" xmlns:xlink="http://www.w3.org/1999/xlink" x="0px" y="0px"
	 viewBox="0 0 24 24" style="enable-background:new 0 0 24 24;" xml:space="preserve">
<style type="text/css">
	.st0{fill-rule:evenodd;clip-rule:evenodd;fill:#2787F5;}
	.st1{fill-rule:evenodd;clip-rule:evenodd;fill:#FFFFFF;}
</style>
<path class="st0" d="M8.3,0h7.4C22.4,0,24,1.6,24,8.3v7.4c0,6.7-1.6,8.3-8.3,8.3H8.3C1.6,24,0,22.4,0,15.7V8.3C0,1.6,1.6,0,8.3,0"/>
<path class="st1" d="M19.7,8.3c0.1-0.4,0-0.6-0.5-0.6h-1.8c-0.4,0-0.7,0.2-0.8,0.5c0,0-0.9,2.2-2.2,3.6c-0.4,0.4-0.6,0.5-0.8,0.5
	c-0.1,0-0.3-0.1-0.3-0.5V8.3c0-0.4-0.1-0.6-0.5-0.6h-2.7C9.8,7.6,9.7,7.8,9.7,8c0,0.4,0.6,0.5,0.7,1.7v2.6c0,0.6-0.1,0.7-0.3,0.7
	c-0.6,0-2-2.2-2.9-4.7C7,7.8,6.8,7.6,6.4,7.6H4.6C4.1,7.6,4,7.9,4,8.1c0,0.5,0.6,2.8,2.8,5.8c1.4,2.1,3.5,3.2,5.3,3.2
	c1.1,0,1.3-0.3,1.3-0.7v-1.6c0-0.5,0.1-0.6,0.5-0.6c0.3,0,0.7,0.1,1.7,1.1c1.2,1.2,1.4,1.7,2,1.7h1.8c0.5,0,0.7-0.3,0.6-0.7
	c-0.2-0.5-0.7-1.2-1.5-2.1c-0.4-0.5-1-1-1.2-1.3c-0.3-0.3-0.2-0.5,0-0.8C17.3,12.3,19.4,9.3,19.7,8.3"/>
</svg>
