<?xml version="1.0" encoding="utf-8"?>
<!-- Generator: Adobe Illustrator 25.2.1, SVG Export Plug-In . SVG Version: 6.00 Build 0)  -->
<svg version="1.1" id="Layer_1" xmlns="http://www.w3.org/2000/svg" xmlns:xlink="http://www.w3.org/1999/xlink" x="0px" y="0px"
	 viewBox="0 0 221 72" style="enable-background:new 0 0 221 72;" xml:space="preserve">
<style type="text/css">
	.st0{fill:#D2BEA6;}
	.st1{fill:url(#SVGID_1_);}
</style>
<g>
	<g>
		<polygon class="st0" points="98.3,22.5 84.2,22.5 84.2,0.4 76.1,0.4 76.1,29.6 98.3,29.6 		"/>
		<polygon class="st0" points="102.5,29.6 110.7,29.6 110.7,0.4 99.2,0.4 99.2,6.7 102.5,6.7 		"/>
		<polygon class="st0" points="125.4,13.6 137.9,29.6 145,29.6 145,0.4 137,0.4 137,15.8 125,0.4 117.4,0.4 117.4,29.6 125.4,29.6 
					"/>
		<path class="st0" d="M63.6,29.6h8.6L59.8,0.2H52l-7.3,17.3h-5.1v6.4h2.4l-2.4,5.7H48l2.3-5.7h11.1L63.6,29.6z M52.8,17.5l3.1-7.7
			l3,7.7H52.8z"/>
		<path class="st0" d="M157.4,29.6h-8.6l12.4-29.5h7.8l7.3,17.3h5.1v6.4h-2.4l2.4,5.7H173l-2.3-5.7h-11.1L157.4,29.6z M168.2,17.5
			l-3.1-7.7l-3,7.7H168.2z"/>
	</g>
	<g>
		<polygon class="st0" points="42.7,59.7 56.8,59.7 56.8,53.3 42.7,53.3 42.7,48.9 58.3,48.9 58.3,42 34.7,42 34.7,71.2 58.5,71.2 
			58.5,64.4 42.7,64.4 		"/>
		<polygon class="st0" points="63.2,49.1 72,49.1 72,71.2 80.1,71.2 80.1,49.1 88.8,49.1 88.8,42 63.2,42 		"/>
		<polygon class="st0" points="184.1,42 177.4,60.5 170.8,42 161.7,42 173.6,71.5 181.1,71.5 193,42 		"/>
		<path class="st0" d="M17.7,41.8h-6.2v0H3.3v17.3H0v6.4h3.3v5.7h8.1v-5.7h6.2c6.5,0,11.9-5.3,11.9-11.9
			C29.5,47.1,24.2,41.8,17.7,41.8z M15.5,59.2h-4V48.3h4c4.1,0,6.6,1.9,6.6,5.4C22,57.1,19.6,59.2,15.5,59.2z"/>
		<path class="st0" d="M196.9,71.2h-8.6l12.4-29.5h7.8l7.3,17.3h5.1v6.4h-2.4l2.4,5.7h-8.5l-2.3-5.7h-11.1L196.9,71.2z M207.7,59.1
			l-3.1-7.7l-3,7.7H207.7z"/>
		<path class="st0" d="M120.2,53.9c0-6.5-5.3-11.9-11.9-11.9h-6.2l0,0h-8.1v17.3h-3.3v6.4h3.3v5.7h8.1v-5.7h3.7l3.8,5.7h9.4
			l-4.9-7.2C117.8,62.2,120.2,58.3,120.2,53.9z M102.2,48.5h4c4.1,0,6.6,1.9,6.6,5.4c0,3.4-2.5,5.5-6.6,5.5h-4V48.5z"/>
		
			<radialGradient id="SVGID_1_" cx="140.1888" cy="49.4487" r="15.9214" fx="139.971" fy="49.5429" gradientTransform="matrix(-0.6428 -0.766 0.6128 -0.5142 199.9965 182.2675)" gradientUnits="userSpaceOnUse">
			<stop  offset="0" style="stop-color:#F1E2CF"/>
			<stop  offset="1" style="stop-color:#D2BEA6"/>
		</radialGradient>
		<path class="st1" d="M134.9,41.8c2.7,0,4.9,0.8,6.6,2.1c0,0,0,0,0,0c1.2,0.9,2.2,2,3.1,3.2c0.4,0.6,0.9,1.3,1.2,1.9
			c0.4,0.7,0.7,1.3,1,2c0,0,0.1,0.1,0.1,0c0,0,0.1,0,0.1-0.1l0,0c0-1.7-0.5-3.3-1.2-4.7c-0.5-1-1.2-1.9-2-2.8c1.6-1,3.6-1.7,6.1-1.7
			c10.4,0,13.6,13.3,7.1,21.3c-5.8,7-14.6,8.8-14.6,8.8s-8.8-1.7-14.6-8.8C121.3,55.2,124.6,41.8,134.9,41.8z M126.3,37.3
			c-1.6,0.2-2.7-0.8-2.7-0.8s0.7,2.1,4.3,3.5c3.9,1.6,5.4,0.2,9,0.6c0,0,0.1,0,0.1,0c-0.2-0.2-0.5-0.3-0.7-0.5
			c-1-0.6-2.1-1.2-3.3-1.4c-0.3-0.1-0.6-0.1-0.9-0.2c-0.2,0-0.3,0-0.5,0c-0.2,0-0.3,0-0.5,0c-0.6,0-1.3,0-1.9,0.2
			c0.5-0.5,1.1-0.8,1.8-1c0.2-0.1,0.3-0.1,0.5-0.1c0.2,0,0.4-0.1,0.5-0.1c0.4,0,0.7-0.1,1.1,0c1.4,0.1,2.8,0.6,4.1,1.3l0.9,0.6
			c0.1,0.1,0.3,0.2,0.4,0.3c0.1,0.1,0.2,0.2,0.3,0.2c-0.9-2-2.7-4.6-6.6-4.5C129.7,35.5,127.9,37.1,126.3,37.3z"/>
	</g>
</g>
</svg>
