<svg xmlns="http://www.w3.org/2000/svg" width="48" height="58" viewBox="0 0 48 58">
  <defs>
    <style>
      .cls-1 {
        fill: #55505d;
        fill-rule: evenodd;
      }
    </style>
  </defs>
  <path id="ava_default" class="cls-1" d="M59.618,186.664a12.5,12.5,0,1,0-11.236,0A24.043,24.043,0,0,0,30,210h2a22,22,0,0,1,44,0h2A24.043,24.043,0,0,0,59.618,186.664ZM43.5,175.5A10.5,10.5,0,1,1,54,186,10.512,10.512,0,0,1,43.5,175.5Zm16.158,0a5.658,5.658,0,1,1-11.316,0h-2a7.658,7.658,0,1,0,15.316,0h-2ZM55,152H53v8h2v-8Zm14.5,24.5h8v-2h-8v2Zm-31-2h-8v2h8v-2Zm36.352-9.885-1-1.732-6.928,4,1,1.732Zm-41.7,21.769,1,1.732,6.928-4-1-1.732Zm33.467-30.736-1.732-1-4,6.929,1.732,1Zm-25.54,11.236-6.928-4-1,1.732,6.928,4Zm33.775,19.5-6.928-4-1,1.732,6.928,4ZM47.117,161.576l-4-6.929-1.732,1,4,6.929Z" transform="translate(-30 -152)"/>
</svg>
