<svg xmlns="http://www.w3.org/2000/svg" width="101.031" height="106" viewBox="0 0 101.031 106">
  <defs>
    <style>
      .cls-1 {
        fill: #494450;
        fill-rule: evenodd;
        opacity: 0.1;
      }
    </style>
  </defs>
  <path id="course_tab_weight" class="cls-1" d="M981.9,136.711v-0.739a1.584,1.584,0,1,1,3.168,0v0.739A1.584,1.584,0,1,1,981.9,136.711Zm52.094-17.454h-10.45l3.83-3.853-2.24-2.25-7.66,7.694,7.66,7.694,2.24-2.25-3.83-3.853h10.45v-3.182Zm-92.157-6.1-2.24,2.25,3.834,3.853h-10.45v3.182h10.449l-3.837,3.853,2.241,2.25,7.661-7.694Zm13.428,3.521-3.168-.106c-0.068,2.092-.149,4.211-0.241,6.333l3.162,0.143C955.113,120.91,955.193,118.779,955.261,116.675Zm0.282-11.14-3.169-.055c-0.037,2.029-.083,4.154-0.139,6.338L955.4,111.9C955.459,109.708,955.506,107.577,955.543,105.535Zm-0.758,22.283-3.162-.174c-0.118,2.141-.248,4.257-0.4,6.314l3.162,0.23C954.537,132.112,954.667,129.978,954.785,127.818Zm57.785,6.37,3.17-.23c-0.15-2.057-.28-4.173-0.4-6.314l-3.16.174C1012.3,129.978,1012.43,132.112,1012.57,134.188Zm-0.62-11.143,3.16-.143c-0.09-2.122-.17-4.241-0.24-6.333l-3.17.106C1011.77,118.779,1011.85,120.91,1011.95,123.045Zm-0.39-11.146,3.17-.081c-0.06-2.184-.1-4.309-0.14-6.338l-3.17.055C1011.46,107.577,1011.5,109.708,1011.56,111.9Zm5.77,34.26a54.516,54.516,0,0,1,5.25,23.356A61.037,61.037,0,0,1,1015.55,198l-2.74-1.607a58.894,58.894,0,0,0,6.6-26.878,49.352,49.352,0,0,0-1.78-13.313c-4.69,2.573-21.179,12.346-27.58,25.542a83.971,83.971,0,0,0,1.663,15.112l-3.094.678a84.871,84.871,0,0,1-1.711-14.589h-6.853a84.871,84.871,0,0,1-1.711,14.589l-3.094-.678a83.783,83.783,0,0,0,1.663-15.112c-6.4-13.2-22.895-22.969-27.582-25.542a49.279,49.279,0,0,0-1.777,13.313,59.008,59.008,0,0,0,6.6,26.878L951.415,198a61.078,61.078,0,0,1-7.03-28.485,54.646,54.646,0,0,1,5.248-23.363v0a32.3,32.3,0,0,0,1.106-6.34c0.036-.38.076-0.744,0.11-1.131h0l2.277,0.207c2.937-5.975,5.351-11.364,5.351-18.32,0-10.216-1.415-16.688-2.857-20.641,0,0.287,0,.546-0.008.839l-3.168-.038c0.027-2.337.154-4.415,0.164-6.286L954.642,92c0.288,0.236,7.006,6.041,7.006,28.565,0,8.26-3.107,14.537-6.393,21.18-0.962,1.945-1.931,3.909-2.844,5.954a132.568,132.568,0,0,0,62.139,0c-0.91-2.045-1.88-4.009-2.84-5.954-3.29-6.643-6.39-12.92-6.39-21.18,0-22.524,6.71-28.329,7-28.565l2.01,2.455c0.01,1.871.16,3.934,0.19,6.27l-3.17.038c0-.3-0.01-0.568-0.01-0.861-1.44,3.946-2.86,10.422-2.86,20.663,0,6.956,2.42,12.345,5.36,18.32l2.27-.207c0.03,0.334.07,0.648,0.1,0.977a33.361,33.361,0,0,0,1.12,6.494v0.01Zm-0.65,6.939c-0.28-.818-0.56-1.636-0.87-2.421a134.036,134.036,0,0,1-64.656,0c-0.309.785-.591,1.6-0.873,2.421,4.007,2.122,21.789,12.175,29.168,26.665h8.065C994.893,165.273,1012.67,155.22,1016.68,153.1Z" transform="translate(-932.969 -92)"/>
</svg>
