<svg xmlns="http://www.w3.org/2000/svg" width="94" height="105" viewBox="0 0 94 105">
  <defs>
    <style>
      .cls-1 {
        fill: #494450;
        fill-rule: evenodd;
        opacity: 0.1;
      }
    </style>
  </defs>
  <path id="course_tab_ass" class="cls-1" d="M751.643,125.087c-5.118-14.943-2.782-31.455-2.757-31.62L745.731,93c-0.1.706-2.479,17.423,2.9,33.119a68.7,68.7,0,0,0,3.528,8.318,162.8,162.8,0,0,0-70.318,0,68.677,68.677,0,0,0,3.529-8.317c5.376-15.7,3-32.413,2.9-33.119l-3.154.467c0.024,0.165,2.361,16.677-2.754,31.62a81.146,81.146,0,0,1-4.934,11.047C673.606,143.6,670,150.641,670,164.981A90.079,90.079,0,0,0,676.646,198l2.912-1.289a88.388,88.388,0,0,1-6.372-31.728,58.115,58.115,0,0,1,1.17-12.164c3.157-9.155,16.584-9.881,20.649-9.881,20.087,0,20.4,16.926,20.4,17.642,0,18.462-10.115,23.208-10.725,23.491-0.065.041-6.623,3.893-13.453,1.329l-1.114,2.987a17.428,17.428,0,0,0,6.123,1.089,20.84,20.84,0,0,0,9.9-2.576,12.61,12.61,0,0,0,1.933-1.144,44.473,44.473,0,0,1,.034,9.62l3.167,0.349c0.037-.341.807-7.633-0.433-12.352A26.044,26.044,0,0,0,717,172.39a26.083,26.083,0,0,0,6.157,11c-1.233,4.719-.462,12-0.425,12.335l3.167-.349a44.5,44.5,0,0,1,.029-9.608,11.405,11.405,0,0,0,1.745,1.032,21.183,21.183,0,0,0,10.1,2.676,17.385,17.385,0,0,0,6.11-1.089l-1.113-2.987c-6.845,2.551-13.394-1.292-13.634-1.419-0.432-.193-10.547-4.939-10.547-23.4,0-.719.233-17.642,20.4-17.642,4.062,0,17.488.725,20.645,9.88a58.052,58.052,0,0,1,1.171,12.165,88.62,88.62,0,0,1-6.372,31.728L757.352,198A90.079,90.079,0,0,0,764,164.981c0-14.336-3.6-21.385-7.421-28.844A81.027,81.027,0,0,1,751.643,125.087ZM739,139.75c-14.033,0-19.694,7.456-22,13.449-2.3-5.993-7.963-13.449-21.994-13.449-3.276,0-11.926.461-18.032,4.739,0.964-2.3,2.028-4.444,3.127-6.593l0.037,0.152a159.349,159.349,0,0,1,73.724,0l0.037-.154c1.1,2.151,2.162,4.3,3.126,6.594C750.919,140.211,742.272,139.75,739,139.75Zm-20.4-17.146h-3.186V104.241h3.186V122.6Z" transform="translate(-670 -93)"/>
</svg>
