<?xml version="1.0" encoding="utf-8"?>
<!-- Generator: Adobe Illustrator 25.2.1, SVG Export Plug-In . SVG Version: 6.00 Build 0)  -->
<svg version="1.1" id="Layer_1" xmlns="http://www.w3.org/2000/svg" xmlns:xlink="http://www.w3.org/1999/xlink" x="0px" y="0px"
	 viewBox="0 0 116 26" style="enable-background:new 0 0 116 26;" xml:space="preserve">
<style type="text/css">
	.st0{fill:url(#SVGID_1_);}
	.st1{fill:url(#SVGID_2_);}
	.st2{fill:url(#SVGID_3_);}
	.st3{fill:url(#SVGID_4_);}
	.st4{opacity:0.2;enable-background:new    ;}
	.st5{opacity:0.12;enable-background:new    ;}
	.st6{opacity:0.25;fill:#FFFFFF;enable-background:new    ;}
	.st7{fill:#FFFFFF;}
</style>
<g>
	<g>
		
			<linearGradient id="SVGID_1_" gradientUnits="userSpaceOnUse" x1="11.8429" y1="26.086" x2="-4.9619" y2="9.2812" gradientTransform="matrix(1 0 0 -1 0 27.7797)">
			<stop  offset="0" style="stop-color:#00A0FF"/>
			<stop  offset="6.574450e-03" style="stop-color:#00A1FF"/>
			<stop  offset="0.2601" style="stop-color:#00BEFF"/>
			<stop  offset="0.5122" style="stop-color:#00D2FF"/>
			<stop  offset="0.7604" style="stop-color:#00DFFF"/>
			<stop  offset="1" style="stop-color:#00E3FF"/>
		</linearGradient>
		<path class="st0" d="M0.5,0.5C0.2,0.8,0,1.3,0,1.9v22.1c0,0.6,0.2,1.1,0.5,1.4l0.1,0.1l12.4-12.4V13v-0.1L0.5,0.5L0.5,0.5z"/>
		
			<linearGradient id="SVGID_2_" gradientUnits="userSpaceOnUse" x1="23.8936" y1="14.7792" x2="-0.3356" y2="14.7792" gradientTransform="matrix(1 0 0 -1 0 27.7797)">
			<stop  offset="0" style="stop-color:#FFE000"/>
			<stop  offset="0.4087" style="stop-color:#FFBD00"/>
			<stop  offset="0.7754" style="stop-color:#FFA500"/>
			<stop  offset="1" style="stop-color:#FF9C00"/>
		</linearGradient>
		<path class="st1" d="M17.1,17.3l-4.1-4.1V13v-0.1l4.1-4.1l0.1,0.1l4.9,2.8c1.4,0.8,1.4,2.1,0,2.9L17.1,17.3L17.1,17.3z"/>
		
			<linearGradient id="SVGID_3_" gradientUnits="userSpaceOnUse" x1="14.8742" y1="12.4815" x2="-7.9145" y2="-10.3072" gradientTransform="matrix(1 0 0 -1 0 27.7797)">
			<stop  offset="0" style="stop-color:#FF3A44"/>
			<stop  offset="1" style="stop-color:#C31162"/>
		</linearGradient>
		<path class="st2" d="M17.2,17.2L12.9,13L0.5,25.5C0.9,26,1.7,26,2.5,25.5L17.2,17.2"/>
		
			<linearGradient id="SVGID_4_" gradientUnits="userSpaceOnUse" x1="-2.6788" y1="34.6309" x2="7.4972" y2="24.4548" gradientTransform="matrix(1 0 0 -1 0 27.7797)">
			<stop  offset="0" style="stop-color:#32A071"/>
			<stop  offset="6.850000e-02" style="stop-color:#2DA771"/>
			<stop  offset="0.4762" style="stop-color:#15CF74"/>
			<stop  offset="0.8009" style="stop-color:#06E775"/>
			<stop  offset="1" style="stop-color:#00F076"/>
		</linearGradient>
		<path class="st3" d="M17.2,8.8L2.5,0.5C1.7,0,0.9,0,0.5,0.5L12.9,13L17.2,8.8z"/>
		<g>
			<path class="st4" d="M17.1,17.1L2.5,25.4c-0.8,0.5-1.5,0.4-2,0l0,0l-0.1,0.1l0,0l0.1,0.1l0,0c0.5,0.4,1.2,0.5,2,0L17.1,17.1
				L17.1,17.1z"/>
			<path class="st5" d="M0.5,25.3C0.2,25,0,24.5,0,23.9v0.1c0,0.6,0.2,1.1,0.5,1.4V25.3L0.5,25.3z"/>
		</g>
		<path class="st5" d="M22.1,14.3l-5,2.8l0.1,0.1l4.9-2.8c0.7-0.4,1-0.9,1-1.4l0,0C23.1,13.5,22.7,13.9,22.1,14.3z"/>
		<path class="st6" d="M2.5,0.6l19.5,11.1c0.6,0.4,1,0.8,1,1.3l0,0c0-0.5-0.3-1-1-1.4L2.5,0.5C1.1-0.3,0,0.3,0,1.9v0.1
			C0,0.5,1.1-0.2,2.5,0.6z"/>
	</g>
	<path class="st7" d="M58.2,10c-2.4,0-4.3,1.8-4.3,4.3c0,2.5,1.9,4.3,4.3,4.3c2.4,0,4.3-1.8,4.3-4.3C62.5,11.8,60.6,10,58.2,10z
		 M58.2,16.9c-1.3,0-2.4-1.1-2.4-2.6c0-1.5,1.1-2.6,2.4-2.6c1.3,0,2.4,1,2.4,2.6C60.6,15.8,59.5,16.9,58.2,16.9z M48.9,10
		c-2.4,0-4.3,1.8-4.3,4.3c0,2.5,1.9,4.3,4.3,4.3c2.4,0,4.3-1.8,4.3-4.3C53.2,11.8,51.3,10,48.9,10z M48.9,16.9
		c-1.3,0-2.4-1.1-2.4-2.6c0-1.5,1.1-2.6,2.4-2.6c1.3,0,2.4,1,2.4,2.6C51.3,15.8,50.2,16.9,48.9,16.9z M37.8,11.3v1.8h4.3
		c-0.1,1-0.5,1.8-1,2.3c-0.6,0.6-1.6,1.3-3.3,1.3c-2.7,0-4.7-2.1-4.7-4.8s2.1-4.8,4.7-4.8c1.4,0,2.5,0.6,3.3,1.3l1.3-1.3
		c-1.1-1-2.5-1.8-4.5-1.8c-3.6,0-6.7,3-6.7,6.6c0,3.6,3.1,6.6,6.7,6.6c2,0,3.5-0.6,4.6-1.9c1.2-1.2,1.6-2.9,1.6-4.2
		c0-0.4,0-0.8-0.1-1.1H37.8z M83.2,12.7c-0.4-1-1.4-2.7-3.6-2.7c-2.2,0-4,1.7-4,4.3c0,2.4,1.8,4.3,4.2,4.3c2,0,3.1-1.2,3.5-1.9
		l-1.5-1c-0.5,0.7-1.1,1.2-2.1,1.2c-1,0-1.6-0.4-2.1-1.3l5.7-2.4L83.2,12.7z M77.4,14.2c0-1.6,1.3-2.5,2.2-2.5
		c0.7,0,1.4,0.4,1.6,0.9L77.4,14.2z M72.8,18.3h1.9V5.8h-1.9V18.3z M69.7,11L69.7,11c-0.5-0.5-1.3-1-2.3-1c-2.1,0-4.1,1.9-4.1,4.3
		c0,2.4,2,4.2,4.1,4.2c1,0,1.8-0.5,2.2-1h0.1v0.6c0,1.6-0.9,2.5-2.3,2.5c-1.1,0-1.9-0.8-2.1-1.5l-1.6,0.7c0.5,1.1,1.7,2.5,3.8,2.5
		c2.2,0,4-1.3,4-4.4v-7.6h-1.8V11z M67.5,16.9c-1.3,0-2.4-1.1-2.4-2.6c0-1.5,1.1-2.6,2.4-2.6c1.3,0,2.3,1.1,2.3,2.6
		C69.8,15.8,68.8,16.9,67.5,16.9z M92,5.8h-4.5v12.5h1.9v-4.7H92c2.1,0,4.1-1.5,4.1-3.9S94,5.8,92,5.8z M92,11.8h-2.7V7.5H92
		c1.4,0,2.2,1.2,2.2,2.1C94.2,10.6,93.4,11.8,92,11.8z M103.6,10c-1.4,0-2.8,0.6-3.3,1.9l1.7,0.7c0.4-0.7,1-0.9,1.7-0.9
		c1,0,1.9,0.6,2,1.6v0.1c-0.3-0.2-1.1-0.5-1.9-0.5c-1.8,0-3.6,1-3.6,2.8c0,1.7,1.5,2.8,3.1,2.8c1.3,0,1.9-0.6,2.4-1.2h0.1v1h1.8
		v-4.8C107.4,11.3,105.7,10,103.6,10z M103.3,16.9c-0.6,0-1.5-0.3-1.5-1.1c0-1,1.1-1.3,2-1.3c0.8,0,1.2,0.2,1.7,0.4
		C105.4,16.1,104.4,16.9,103.3,16.9z M113.9,10.3l-2.1,5.4h-0.1l-2.2-5.4h-2l3.3,7.6l-1.9,4.2h1.9l5.1-11.8H113.9z M97.1,18.3H99
		V5.8h-1.9V18.3z"/>
</g>
</svg>
