<?xml version="1.0" encoding="utf-8"?>
<!-- Generator: Adobe Illustrator 25.2.1, SVG Export Plug-In . SVG Version: 6.00 Build 0)  -->
<svg version="1.1" id="Layer_1" xmlns="http://www.w3.org/2000/svg" xmlns:xlink="http://www.w3.org/1999/xlink" x="0px" y="0px"
	 viewBox="0 0 100 22" style="enable-background:new 0 0 100 22;" xml:space="preserve">
<style type="text/css">
	.st0{fill:#FFFFFF;}
</style>
<g>
	<path class="st0" d="M17.8,16.1c0,0.1-0.4,1.6-1.5,3.1c-0.9,1.4-1.8,2.7-3.3,2.7c-1.5,0-1.9-0.9-3.6-0.9c-1.7,0-2.2,0.8-3.6,0.9
		c-1.4,0.1-2.5-1.4-3.4-2.8C0.4,16.5-1,11.5,0.9,8.1c0.9-1.7,2.7-2.7,4.5-2.8c1.4,0,2.7,1,3.6,1c0.9,0,2.5-1.2,4.2-1
		c0.7,0,2.7,0.3,4,2.2c-0.1,0.1-2.4,1.4-2.4,4.2C14.9,15,17.8,16.1,17.8,16.1z M12.1,3.5c0.7-0.9,1.3-2.2,1.1-3.5
		c-1.1,0-2.4,0.8-3.2,1.7C9.3,2.5,8.7,3.8,8.9,5.1C10.1,5.2,11.3,4.5,12.1,3.5z"/>
	<path class="st0" d="M33.6,18.2h2L31.2,5.6h-2.1l-4.5,12.5h2l1.1-3.4h4.8L33.6,18.2z M30.1,7.7L30.1,7.7l1.9,5.5h-3.8L30.1,7.7z
		 M41.6,8.9c-1.3,0-2.4,0.6-2.9,1.6h0V9h-1.8v12.2h1.9v-4.5h0c0.5,1,1.6,1.6,2.9,1.6c2.3,0,3.8-1.8,3.8-4.7
		C45.4,10.8,43.9,8.9,41.6,8.9z M41.1,16.7c-1.4,0-2.4-1.2-2.4-3.1c0-1.8,1-3.1,2.4-3.1c1.5,0,2.4,1.2,2.4,3.1
		C43.5,15.5,42.5,16.7,41.1,16.7z M51.6,8.9c-1.3,0-2.4,0.6-2.9,1.6h0V9h-1.8v12.2h1.9v-4.5h0c0.5,1,1.6,1.6,2.9,1.6
		c2.3,0,3.8-1.8,3.8-4.7C55.4,10.8,53.9,8.9,51.6,8.9z M51.1,16.7c-1.4,0-2.4-1.2-2.4-3.1c0-1.8,1-3.1,2.4-3.1
		c1.5,0,2.4,1.2,2.4,3.1C53.5,15.5,52.5,16.7,51.1,16.7z M60.1,14.7c0.1,2.3,2,3.7,4.8,3.7c3,0,4.8-1.5,4.8-3.8
		c0-1.8-1.1-2.9-3.6-3.5l-1.4-0.3c-1.6-0.4-2.3-0.9-2.3-1.8c0-1.1,1-1.9,2.5-1.9c1.5,0,2.5,0.8,2.6,2h1.9c-0.1-2.2-1.9-3.7-4.5-3.7
		c-2.7,0-4.5,1.5-4.5,3.7c0,1.7,1.1,2.8,3.4,3.4l1.6,0.4c1.6,0.4,2.3,1,2.3,2c0,1.1-1.1,1.9-2.7,1.9c-1.6,0-2.8-0.8-3-2.1H60.1z
		 M71.9,6.9V9h-1.3v1.5h1.3v5.2c0,1.8,0.7,2.5,2.6,2.5c0.4,0,0.8,0,1-0.1v-1.5c-0.1,0-0.4,0-0.6,0c-0.8,0-1.1-0.4-1.1-1.1v-5h1.7V9
		h-1.7V6.9H71.9z M80.8,18.3c2.6,0,4.3-1.8,4.3-4.7c0-2.9-1.7-4.7-4.3-4.7c-2.6,0-4.3,1.8-4.3,4.7C76.5,16.5,78.1,18.3,80.8,18.3z
		 M80.8,16.7c-1.5,0-2.4-1.2-2.4-3.1c0-2,0.9-3.1,2.4-3.1c1.5,0,2.4,1.2,2.4,3.1C83.2,15.6,82.3,16.7,80.8,16.7z M86.6,18.2h1.9
		v-5.4c0-1.3,0.7-2.1,1.9-2.1c0.4,0,0.7,0.1,0.8,0.1V9c-0.1,0-0.4-0.1-0.6-0.1c-1.1,0-1.9,0.6-2.2,1.7h0V9h-1.8V18.2z M98.1,15.5
		c-0.3,0.8-1.1,1.3-2.1,1.3c-1.5,0-2.4-1-2.4-2.6v-0.1h6.4v-0.6c0-2.8-1.6-4.5-4.1-4.5c-2.6,0-4.2,1.9-4.2,4.7
		c0,2.9,1.6,4.6,4.3,4.6c2.1,0,3.7-1.1,3.9-2.8H98.1z M95.9,10.4c1.3,0,2.2,0.9,2.2,2.3h-4.5C93.7,11.4,94.6,10.4,95.9,10.4z"/>
</g>
</svg>
