<svg xmlns="http://www.w3.org/2000/svg" width="28.375" height="30.594" viewBox="0 0 28.375 30.594">
  <defs>
    <style>
      .cls-1 {
        fill: #615c69;
        fill-rule: evenodd;
      }
    </style>
  </defs>
  <path id="menu_icon_j_about" class="cls-1" d="M51.045,629.228c-1.836-.732-3.973.417-5.132-0.022-0.869-.33-1.363-1.278-1.51-0.749-0.212.768-.245,1.992,1.272,3.8,2.176,2.592,4.11.8,7.286,2.511a0.685,0.685,0,0,0,1-.67C53.813,632.29,53.3,630.127,51.045,629.228ZM54,658.9a11.4,11.4,0,0,1-4.536-.936h0a18,18,0,0,1-6.92-5.13,12.121,12.121,0,0,1-1.686-12.524,8.258,8.258,0,0,1,7.712-4.967A8.013,8.013,0,0,1,54,637.675a8.014,8.014,0,0,1,5.43-2.329,8.258,8.258,0,0,1,7.712,4.967,12.121,12.121,0,0,1-1.686,12.524,18,18,0,0,1-6.92,5.13A11.4,11.4,0,0,1,54,658.9Zm-3.605-3.128a9.116,9.116,0,0,0,7.211,0,15.682,15.682,0,0,0,6.027-4.454A9.8,9.8,0,0,0,65,641.333a5.935,5.935,0,0,0-5.577-3.6c-1.525,0-2.9.722-4.6,2.417a1.172,1.172,0,0,1-1.658,0c-1.7-1.695-3.076-2.417-4.6-2.417a5.935,5.935,0,0,0-5.577,3.6,9.8,9.8,0,0,0,1.375,9.988,15.682,15.682,0,0,0,6.027,4.454h0ZM54,654.137a6.693,6.693,0,0,1-2.675-.556,13.327,13.327,0,0,1-5.132-3.775,1.2,1.2,0,0,1,.162-1.679,1.173,1.173,0,0,1,1.662.164,11.007,11.007,0,0,0,4.239,3.1,4.389,4.389,0,0,0,3.49,0,11,11,0,0,0,4.239-3.1,1.173,1.173,0,0,1,1.662-.164,1.2,1.2,0,0,1,.162,1.679,13.337,13.337,0,0,1-5.133,3.776A6.709,6.709,0,0,1,54,654.137Z" transform="translate(-39.813 -628.312)"/>
</svg>
