<svg xmlns="http://www.w3.org/2000/svg" width="28.375" height="28.343" viewBox="0 0 28.375 28.343">
  <defs>
    <style>
      .cls-1 {
        fill: #d2bea6;
        fill-rule: evenodd;
      }
    </style>
  </defs>
  <path id="menu_icon_g_contest_hover" class="cls-1" d="M63.492,527.049c0-.321,0-0.524,0-0.584l-0.029-1.151H44.282l-0.029,1.151c0,0.06-.005.263,0,0.584H39.69v1.18c0,0.32.077,7.674,6.631,10.7a15.382,15.382,0,0,0,4.442,6.539V547.2c-2.687.682-5.128,2.569-5.128,5.265v1.18h16.47v-1.18c0-2.7-2.441-4.583-5.128-5.265v-1.728a15.383,15.383,0,0,0,4.442-6.539c6.555-3.03,6.632-10.384,6.632-10.7v-1.18H63.492ZM42.161,529.41h2.185a38.129,38.129,0,0,0,.906,6.04A10.049,10.049,0,0,1,42.161,529.41Zm12.945,14.521-0.492.353V549.2l1.022,0.14a5.688,5.688,0,0,1,3.7,1.944H48.407a5.687,5.687,0,0,1,3.7-1.944l1.021-.14v-4.916l-0.492-.353c-5.142-3.7-5.9-12.994-6-16.256H61.111C61.006,530.937,60.248,540.234,55.106,543.931Zm7.386-8.492a38.124,38.124,0,0,0,.9-6.029h2.179A10.2,10.2,0,0,1,62.492,535.439Z" transform="translate(-39.688 -525.313)"/>
</svg>
