<svg xmlns="http://www.w3.org/2000/svg" width="28.375" height="28.344" viewBox="0 0 28.375 28.344">
  <defs>
    <style>
      .cls-1 {
        fill: #615c69;
        fill-rule: evenodd;
      }
    </style>
  </defs>
  <path id="menu_icon_f_chat" class="cls-1" d="M65.177,577.388H53.159a2.868,2.868,0,0,0-2.876,2.854v6.3H43.076A3.376,3.376,0,0,0,39.69,589.9v9.394a3.376,3.376,0,0,0,3.386,3.358h0.81v3.071h3.368l3.049-3.071h6.8a3.376,3.376,0,0,0,3.386-3.358v-6.241l1.133,1.119h3.2v-2.181h0.349a2.868,2.868,0,0,0,2.876-2.853v-8.892A2.868,2.868,0,0,0,65.177,577.388Zm-7.048,21.9a1.011,1.011,0,0,1-1.022,1H49.317l-3.049,3.071H46.25v-3.071H43.076a1.011,1.011,0,0,1-1.023-1V589.9a1.011,1.011,0,0,1,1.023-1H57.106a1.011,1.011,0,0,1,1.022,1v9.394Zm7.561-10.156a0.5,0.5,0,0,1-.512.492H62.465v2.05l-1.977-1.952a3.377,3.377,0,0,0-3.382-3.186h-4.46v-6.3a0.5,0.5,0,0,1,.512-0.493H65.177a0.5,0.5,0,0,1,.512.493v8.892ZM45.9,593.412a1.181,1.181,0,1,0,1.182,1.181A1.181,1.181,0,0,0,45.9,593.412Zm4.255,0a1.181,1.181,0,1,0,1.182,1.181A1.182,1.182,0,0,0,50.156,593.412Zm4.254,0a1.181,1.181,0,1,0,1.182,1.181A1.182,1.182,0,0,0,54.411,593.412Z" transform="translate(-39.688 -577.375)"/>
</svg>
