<svg xmlns="http://www.w3.org/2000/svg" width="28" height="28.031" viewBox="0 0 28 28.031">
  <defs>
    <style>
      .cls-1 {
        fill: #d2bea6;
        fill-rule: evenodd;
      }
    </style>
  </defs>
  <path id="menu_icon_i_faq_hover" class="cls-1" d="M62.087,708.959h-3.9l-3.938-3.972H43.309a3.337,3.337,0,0,1-3.345-3.321V684.259a3.336,3.336,0,0,1,3.345-3.32H64.638a3.336,3.336,0,0,1,3.345,3.32v17.407a3.337,3.337,0,0,1-3.345,3.321H62.087v3.972Zm-2.928-2.336h0.593v-3.971h4.887a1,1,0,0,0,1.01-.986V684.259a1,1,0,0,0-1.01-.985H43.309a1,1,0,0,0-1.01.985v17.407a1,1,0,0,0,1.01.986H55.221Zm-6.664-13.364a8.507,8.507,0,0,1,1.262-1.41,7.569,7.569,0,0,0,.848-0.9,1.271,1.271,0,0,0,.276-0.78,1.071,1.071,0,0,0-.483-0.916,2.1,2.1,0,0,0-1.252-.346,2.778,2.778,0,0,0-1.43.375,2.873,2.873,0,0,0-1.035,1.045l-2.938-1.577a5.561,5.561,0,0,1,2.288-2.15,7.648,7.648,0,0,1,3.569-.769,6.587,6.587,0,0,1,3.776.976,4.025,4.025,0,0,1,1.43,2.731,3.485,3.485,0,0,1-.276,1.43,3.907,3.907,0,0,1-.661,1.046,12.06,12.06,0,0,1-1,.956,7.18,7.18,0,0,0-.986.976,1.476,1.476,0,0,0-.316.937h-3.51A2.837,2.837,0,0,1,52.495,693.259Zm-0.178,6.231a2.013,2.013,0,0,1-.593-1.469,1.955,1.955,0,0,1,.584-1.459,2.065,2.065,0,0,1,1.509-.572,2.1,2.1,0,0,1,1.518.572,1.939,1.939,0,0,1,.593,1.459,2.013,2.013,0,0,1-.593,1.469,2.039,2.039,0,0,1-1.518.6A2.016,2.016,0,0,1,52.316,699.49Z" transform="translate(-39.969 -680.938)"/>
</svg>
