<svg xmlns="http://www.w3.org/2000/svg" width="16" height="16" viewBox="0 0 16 16">
  <defs>
    <style>
      .cls-1 {
        fill: #7b7682;
        fill-rule: evenodd;
      }
    </style>
  </defs>
  <path id="menu_feedback_emoji_smile" class="cls-1" d="M208,851.429a4.065,4.065,0,0,1-3.793-2.846l0.944-.333a2.953,2.953,0,0,0,5.7,0l0.943,0.333A4.065,4.065,0,0,1,208,851.429ZM208,854a8,8,0,1,1,8-8A8.009,8.009,0,0,1,208,854Zm0-15a7,7,0,1,0,7,7A7.008,7.008,0,0,0,208,839Zm-2,4.767a1,1,0,1,1-1-1A1,1,0,0,1,206,843.767Zm6,0a1,1,0,1,1-1-1A1,1,0,0,1,212,843.767Z" transform="translate(-200 -838)"/>
</svg>
