<svg xmlns="http://www.w3.org/2000/svg" width="28.031" height="28.969" viewBox="0 0 28.031 28.969">
  <defs>
    <style>
      .cls-1 {
        fill: #d2bea6;
        fill-rule: evenodd;
      }
    </style>
  </defs>
  <path id="menu_icon_h_review_hover" class="cls-1" d="M67.524,751.75a1.73,1.73,0,1,1-1.73-1.762A1.747,1.747,0,0,1,67.524,751.75Zm-11.872,8.468a1.73,1.73,0,1,1-1.73-1.762A1.747,1.747,0,0,1,55.652,760.218ZM43.78,751.75a1.73,1.73,0,1,1-1.73-1.762A1.747,1.747,0,0,1,43.78,751.75ZM63.371,737a1.731,1.731,0,1,1-1.73-1.763A1.746,1.746,0,0,1,63.371,737Zm-15.439,0a1.73,1.73,0,1,1-1.73-1.763A1.746,1.746,0,0,1,47.932,737Zm14.65,23.145-8.66-4.638-8.66,4.638,1.654-9.824-7.007-6.959,9.683-1.433,4.331-8.938,4.331,8.938,9.683,1.433-7.006,6.959Zm-8.66-7.294,5.6,3L58.449,749.5l4.528-4.5-6.257-.926-2.8-5.777-2.8,5.777L44.866,745l4.528,4.5-1.069,6.349Z" transform="translate(-39.906 -733)"/>
</svg>
