<svg xmlns="http://www.w3.org/2000/svg" width="28.375" height="28.313" viewBox="0 0 28.375 28.313">
  <defs>
    <style>
      .cls-1 {
        fill: #615c69;
        fill-rule: evenodd;
      }
    </style>
  </defs>
  <path id="menu_icon_c_nutrition" class="cls-1" d="M63.479,379.983a5.618,5.618,0,0,0-4.231.578,3.343,3.343,0,0,1-.733.3,3.342,3.342,0,0,1-.733-0.3,5.929,5.929,0,0,0-3.451-.743v-4.179l-0.023-.024-3.144-2.786v-4.214h-8.3v4.2l-3.155,2.8-0.024.024v5.784a67.5,67.5,0,0,0,1.607,14.6l0.213,0.921h11l0.2-.921a1.428,1.428,0,0,0,.047-0.188,4.744,4.744,0,0,0,2.777,1.109,5.628,5.628,0,0,0,2.576-.507c0.484-.225.319-0.225,0.8,0a5.585,5.585,0,0,0,2.576.507c2.884,0,6.559-4.226,6.559-8.96C68.053,383.465,66.552,380.845,63.479,379.983Zm-18.247-9.007H48.8v1.2H45.232v-1.2Zm-0.745,3.565h5.046l1.217,1.074H43.271Zm6.3,19.159-0.177.885h-7.2a63.959,63.959,0,0,1-1.359-13.162v-3.447h9.915v2.692c-2.009,1.239-2.99,3.659-2.99,7.318A10.315,10.315,0,0,0,50.787,393.7Zm10.707,0.885a3.243,3.243,0,0,1-1.607-.307,3.013,3.013,0,0,0-2.742,0,3.243,3.243,0,0,1-1.607.307c-1.253,0-4.2-2.786-4.2-6.6,0-4.367,1.525-5.359,2.86-5.737a3.35,3.35,0,0,1,2.553.437,4.184,4.184,0,0,0,1.761.531,4.184,4.184,0,0,0,1.761-.531,3.35,3.35,0,0,1,2.553-.437c1.335,0.378,2.86,1.37,2.86,5.737C65.689,391.8,62.747,394.585,61.494,394.585Zm-2.421-15.763a6.323,6.323,0,0,1-.665-0.031l-0.943-.1-0.1-.942c-0.034-.307-0.279-3.044,1.411-4.733s4.429-1.443,4.738-1.41l0.943,0.1,0.1,0.942c0.034,0.307.279,3.045-1.411,4.734A5.833,5.833,0,0,1,59.073,378.822Zm3.11-4.845a2.413,2.413,0,0,0-2.445,2.442A2.413,2.413,0,0,0,62.183,373.977Z" transform="translate(-39.688 -368.625)"/>
</svg>
