<svg xmlns="http://www.w3.org/2000/svg" width="28.375" height="28.343" viewBox="0 0 28.375 28.343">
  <defs>
    <style>
      .cls-1 {
        fill: #615c69;
        fill-rule: evenodd;
      }
    </style>
  </defs>
  <path id="menu_icon_b_exercise" class="cls-1" d="M68.053,337.94H65.689v-2.361H63.326v-2.361H60.962v4.722H46.781v-4.722H44.417v2.361H42.053v2.361H39.69V340.3h2.364v2.361h2.364v2.361h2.364V340.3H60.962v4.722h2.364v-2.361h2.364V340.3h2.364V337.94ZM50.917,321.414v8.3l5.034,3.408,1.326-1.954-4-2.706v-7.047H50.917Zm-7.962,11.805a10.05,10.05,0,1,1,19.023-2.361h2.388a12.4,12.4,0,1,0-23.952,2.361h2.541Z" transform="translate(-39.688 -316.688)"/>
</svg>
