<svg xmlns="http://www.w3.org/2000/svg" width="24" height="24" viewBox="0 0 24 24">
  <defs>
    <style>
      .cls-1 {
        fill: #615c69;
        fill-rule: evenodd;
      }
    </style>
  </defs>
  <path id="menu_icon_k_avatar" class="cls-1" d="M315,1143a12,12,0,1,0,12,12A12.011,12.011,0,0,0,315,1143Zm-5.863,20.08a7.973,7.973,0,0,1,11.726,0A9.912,9.912,0,0,1,309.137,1163.08Zm2.348-8.08a3.515,3.515,0,1,1,3.515,3.51A3.514,3.514,0,0,1,311.485,1155Zm10.87,6.75a10.054,10.054,0,0,0-3.77-2.57,5.515,5.515,0,1,0-7.171,0,10.051,10.051,0,0,0-3.769,2.57A10,10,0,1,1,322.355,1161.75Z" transform="translate(-303 -1143)"/>
</svg>
